# xmcd
#
# Track frame offsets:
#	150
#	23392
#	43877
#	62220
#	81032
#
# Disc length: 1291 seconds
#
# Revision: 0
# Processed by: cddbd v1.5.2PL0 Copyright (c) Steve Scherf et al.
# Submitted via: EasyCDDAExtractor 11.5.3.1
#
DISCID=35050905
DTITLE=Aghast View - Chemical Storm
DYEAR=1995
DGENRE=
TTITLE0=Chemical Storm Cyanide Mixx
TTITLE1=Sublethal Asphyxiation
TTITLE2=Overchemical Toxemia
TTITLE3=Collateral Effects
TTITLE4=Collateral Effects of Chemicalwar
EXTD=
EXTT0=
EXTT1=
EXTT2=
EXTT3=
EXTT4=
PLAYORDER=
